<?xml version="1.0" standalone="no"?>
<!DOCTYPE svg PUBLIC "-//W3C//DTD SVG 20010904//EN"
 "http://www.w3.org/TR/2001/REC-SVG-20010904/DTD/svg10.dtd">
<svg version="1.0" xmlns="http://www.w3.org/2000/svg"
 width="225.000000pt" height="225.000000pt" viewBox="0 0 225.000000 225.000000"
 preserveAspectRatio="xMidYMid meet">

<g transform="translate(0.000000,225.000000) scale(0.100000,-0.100000)"
fill="#000000" stroke="none">
<path d="M1037 2103 c-12 -11 -8 -25 5 -17 7 5 20 9 30 9 13 1 15 -2 7 -17 -5
-10 -15 -18 -21 -18 -7 0 -3 -7 8 -15 19 -14 19 -14 -1 -15 -17 0 -17 -2 -5
-10 12 -7 13 -13 4 -28 -10 -16 -8 -18 30 -19 37 -2 39 -1 22 12 -10 8 -24 11
-30 8 -8 -5 -8 -3 0 8 6 8 14 35 16 62 l6 47 -33 0 c-17 0 -35 -3 -38 -7z"/>
<path d="M1146 2082 c-3 -6 1 -15 8 -21 8 -7 17 -8 20 -3 3 6 -1 15 -8 21 -8
7 -17 8 -20 3z"/>
<path d="M1110 2064 c0 -8 5 -12 10 -9 6 4 8 11 5 16 -9 14 -15 11 -15 -7z"/>
<path d="M1228 2053 c-8 -17 -3 -86 7 -90 6 -1 10 16 10 41 0 42 -8 67 -17 49z"/>
<path d="M907 2044 c-6 -6 12 -76 23 -87 4 -5 11 -4 14 1 3 6 2 13 -4 17 -5 3
-10 19 -10 35 0 28 -11 45 -23 34z"/>
<path d="M940 2040 c0 -5 5 -10 10 -10 6 0 10 5 10 10 0 6 -4 10 -10 10 -5 0
-10 -4 -10 -10z"/>
<path d="M1260 2040 c0 -5 5 -10 10 -10 6 0 10 5 10 10 0 6 -4 10 -10 10 -5 0
-10 -4 -10 -10z"/>
<path d="M1120 2030 c-13 -8 -13 -10 1 -10 9 0 21 -11 27 -25 6 -14 16 -25 22
-25 16 0 12 17 -12 44 -17 20 -27 23 -38 16z"/>
<path d="M1325 2027 c14 -11 16 -21 11 -50 -6 -30 -4 -37 9 -37 9 0 14 4 11 9
-3 4 -1 23 4 42 11 36 2 49 -34 49 -19 0 -19 -1 -1 -13z"/>
<path d="M832 2021 c-20 -12 -5 -78 19 -84 10 -3 22 -1 25 4 3 5 -1 9 -9 9 -8
0 -18 12 -21 26 -8 30 1 45 13 25 7 -10 10 -10 16 -1 4 7 1 16 -6 21 -17 11
-21 11 -37 0z"/>
<path d="M1393 1978 c-6 -23 -9 -46 -6 -51 7 -12 41 65 35 81 -8 22 -18 12
-29 -30z"/>
<path d="M758 2005 c-7 -7 32 -85 43 -85 10 0 -9 60 -25 78 -7 7 -15 10 -18 7z"/>
<path d="M1302 1998 c-18 -18 -15 -48 5 -48 13 0 14 3 5 12 -7 7 -8 17 -1 30
11 21 8 23 -9 6z"/>
<path d="M1445 1990 c3 -5 -1 -23 -10 -39 -18 -37 -19 -41 -1 -41 7 0 16 10
19 23 3 12 9 32 12 45 6 17 3 22 -9 22 -10 0 -14 -4 -11 -10z"/>
<path d="M710 1985 c0 -4 30 -73 37 -84 1 -1 6 0 11 3 11 7 -25 86 -39 86 -5
0 -9 -2 -9 -5z"/>
<path d="M1482 1942 c-14 -46 -15 -52 -4 -52 4 0 14 16 21 35 15 42 15 49 3
53 -5 1 -14 -15 -20 -36z"/>
<path d="M645 1941 c-13 -43 39 -95 61 -59 4 6 3 8 -3 5 -12 -8 -48 41 -38 51
3 4 10 1 14 -7 7 -10 9 -10 14 2 3 9 -1 18 -9 21 -25 10 -32 7 -39 -13z"/>
<path d="M1540 1944 c0 -9 -10 -32 -21 -51 -16 -26 -19 -37 -10 -46 8 -8 11
-8 11 1 0 7 13 12 30 12 23 0 33 7 45 30 16 31 13 50 -7 50 -5 0 -8 -6 -5 -13
3 -7 -3 -24 -13 -36 -23 -32 -38 -9 -15 25 15 24 13 44 -6 44 -5 0 -9 -7 -9
-16z"/>
<path d="M508 1915 c-3 -3 7 -19 23 -35 33 -32 37 -67 12 -86 -10 -7 -15 -15
-12 -19 13 -12 39 27 39 59 0 45 -43 100 -62 81z"/>
<path d="M580 1914 c0 -12 41 -74 49 -74 18 0 18 13 0 31 -10 10 -19 26 -19
34 0 8 -7 15 -15 15 -8 0 -15 -3 -15 -6z"/>
<path d="M1610 1870 c-18 -25 -19 -34 -10 -45 7 -8 20 -15 29 -15 14 1 14 2
-2 11 -24 14 -12 29 24 29 32 0 34 3 19 31 -15 27 -35 24 -60 -11z m50 5 c0
-8 -7 -15 -15 -15 -9 0 -12 6 -9 15 4 8 10 15 15 15 5 0 9 -7 9 -15z"/>
<path d="M440 1860 c0 -5 6 -10 13 -10 22 0 57 -39 57 -64 0 -13 -7 -29 -15
-36 -10 -9 -15 -9 -15 -1 0 21 -3 26 -27 49 -28 26 -68 29 -77 6 -5 -12 -2
-15 10 -10 25 9 56 -3 50 -20 -3 -8 1 -14 9 -14 8 0 20 -9 27 -19 13 -18 14
-18 35 -2 18 15 20 23 13 59 -4 23 -13 48 -20 57 -14 17 -60 21 -60 5z"/>
<path d="M1700 1848 c0 -6 -9 -22 -21 -34 -21 -22 -19 -44 3 -44 6 0 9 3 5 6
-3 4 5 21 18 39 23 29 24 45 3 45 -4 0 -8 -5 -8 -12z"/>
<path d="M1014 1821 c-118 -19 -249 -77 -238 -106 4 -8 11 -15 16 -15 6 0 5 7
-2 18 -7 9 4 0 24 -21 20 -21 34 -42 31 -48 -4 -5 -3 -9 2 -8 4 1 16 -1 26 -6
9 -4 23 -3 30 3 6 5 43 19 81 31 106 33 231 27 330 -14 38 -16 38 -16 20 -38
-10 -12 -1 -6 21 14 48 44 79 61 125 68 l34 6 -72 39 c-41 21 -103 46 -139 57
-77 22 -216 31 -289 20z"/>
<path d="M1730 1820 c0 -5 5 -10 10 -10 6 0 10 5 10 10 0 6 -4 10 -10 10 -5 0
-10 -4 -10 -10z"/>
<path d="M1758 1785 c-35 -39 -48 -66 -30 -64 4 1 26 23 50 49 27 31 38 49 30
52 -7 2 -30 -15 -50 -37z"/>
<path d="M587 1642 c-119 -242 -141 -318 -141 -492 -1 -145 12 -205 62 -305
44 -88 82 -131 82 -91 0 8 11 17 25 20 19 5 39 -3 84 -33 32 -22 70 -54 84
-70 14 -17 29 -31 32 -31 4 0 -6 15 -21 34 -16 18 -45 54 -64 78 -41 53 -113
100 -109 71 4 -28 -2 -32 -26 -21 -15 7 -24 17 -21 25 3 7 1 13 -5 13 -6 0 -9
7 -5 15 3 8 -2 18 -10 23 -9 5 -14 13 -12 18 1 5 -12 16 -29 24 -27 12 -33 21
-33 48 0 30 2 32 38 33 38 1 37 3 -11 13 -25 6 -28 11 -25 38 2 26 12 37 51
60 27 16 52 26 57 23 4 -3 13 2 20 10 7 8 16 13 20 10 4 -3 11 2 14 11 4 12 1
14 -13 9 -11 -3 -22 -1 -26 4 -4 7 1 8 11 4 11 -4 15 -3 11 4 -5 7 1 9 15 6
17 -3 19 -2 9 5 -9 6 4 9 40 6 30 -1 68 1 84 6 36 11 99 20 183 27 53 4 62 8
62 24 0 11 -11 24 -25 31 -23 10 -29 20 -26 41 0 4 -3 7 -9 7 -14 0 -12 -12 6
-38 8 -12 22 -22 30 -22 8 0 14 -5 14 -10 0 -6 -16 -8 -37 -5 -21 2 -59 7 -85
10 -27 4 -48 11 -48 16 0 6 -5 7 -10 4 -6 -4 -18 -1 -26 6 -12 10 -13 9 -8 -4
3 -9 25 -20 47 -26 34 -7 37 -9 14 -10 -16 -1 -36 -5 -46 -11 -14 -7 -24 -4
-40 11 -11 11 -21 15 -21 9 0 -7 -6 -7 -21 1 -14 7 -19 17 -16 30 3 10 1 19
-4 19 -5 0 -9 -7 -9 -15 0 -8 -5 -15 -11 -15 -6 0 -8 -7 -5 -16 4 -10 1 -14
-6 -11 -7 2 -19 -5 -26 -17 -11 -20 -12 -19 -6 7 5 20 2 27 -9 27 -9 0 -19 4
-22 10 -3 6 1 7 9 4 9 -3 16 -2 16 4 0 5 9 12 20 15 11 3 20 0 20 -6 0 -6 7
-1 16 11 8 12 19 20 24 17 4 -3 7 3 5 12 -2 10 -4 18 -5 18 -1 0 -3 11 -6 25
-3 19 -2 21 6 10 14 -21 12 -5 -8 80 -10 41 -17 100 -15 131 2 31 -1 67 -7 80
-8 19 -9 14 -5 -26 4 -39 2 -45 -5 -25 -15 38 -3 -186 13 -247 l14 -52 -50
-16 c-61 -20 -71 -14 -17 10 37 17 40 21 35 49 -20 119 -25 216 -16 306 6 53
13 104 17 113 3 10 5 17 3 17 -2 0 -43 -80 -92 -178z m100 -64 c-3 -7 -5 -2
-5 12 0 14 2 19 5 13 2 -7 2 -19 0 -25z m-83 -326 c2 -4 -5 -9 -17 -9 -17 -2
-19 0 -7 7 18 12 18 12 24 2z m144 -17 c-3 -3 -21 -10 -39 -15 -31 -9 -32 -8
-15 5 18 14 66 22 54 10z m-188 -446 c0 -6 -4 -7 -10 -4 -5 3 -10 11 -10 16 0
6 5 7 10 4 6 -3 10 -11 10 -16z"/>
<path d="M689 1788 c-7 -25 -7 -48 1 -48 5 0 9 11 8 25 -2 21 -6 32 -9 23z"/>
<path d="M745 1761 c-3 -5 -2 -12 3 -15 5 -3 9 1 9 9 0 17 -3 19 -12 6z"/>
<path d="M741 1714 c13 -17 26 -30 28 -27 3 2 -8 16 -24 31 l-28 27 24 -31z"/>
<path d="M1448 1673 c7 -3 16 -2 19 1 4 3 -2 6 -13 5 -11 0 -14 -3 -6 -6z"/>
<path d="M1495 1670 c-14 -7 -8 -8 20 -4 31 4 37 3 25 -6 -13 -10 -13 -11 0
-9 19 3 44 -8 95 -39 24 -15 35 -19 27 -9 -8 9 -22 19 -33 22 -11 4 -17 10
-14 15 5 8 -66 41 -88 39 -6 0 -21 -4 -32 -9z"/>
<path d="M764 1662 c4 -3 14 -7 22 -8 9 -1 13 0 10 4 -4 3 -14 7 -22 8 -9 1
-13 0 -10 -4z"/>
<path d="M1427 1659 c7 -7 15 -10 18 -7 3 3 -2 9 -12 12 -14 6 -15 5 -6 -5z"/>
<path d="M1365 1620 c-21 -22 -42 -37 -46 -34 -4 2 -11 -1 -15 -7 -5 -8 -3 -9
6 -4 10 6 12 3 6 -11 -3 -10 6 -4 20 15 15 18 40 41 56 51 17 10 26 20 20 23
-5 4 -26 -11 -47 -33z"/>
<path d="M887 1570 c22 -36 46 -84 55 -107 18 -48 12 -58 -37 -66 -27 -4 -27
-4 8 -6 23 0 37 4 37 11 0 6 7 3 15 -8 8 -10 15 -17 15 -14 8 33 7 39 -3 33
-7 -4 -8 0 -4 12 5 11 1 22 -9 30 -9 6 -17 26 -18 42 0 17 -5 28 -10 25 -5 -3
-6 2 -3 12 4 9 3 14 -2 11 -5 -3 -17 5 -25 17 -19 26 -21 42 -4 32 7 -5 8 -3
4 5 -5 7 -11 10 -14 7 -3 -3 -14 2 -24 11 -11 10 -2 -12 19 -47z"/>
<path d="M1510 1618 c0 -19 -26 -25 -32 -8 -2 7 -19 5 -47 -5 -24 -8 -47 -13
-51 -10 -4 3 -8 -1 -7 -8 1 -40 -4 -56 -17 -51 -10 4 -13 0 -10 -13 7 -26 -13
-76 -28 -67 -8 5 -8 3 -2 -7 5 -8 10 -25 10 -39 1 -14 2 -33 3 -42 2 -28 27
-21 41 11 6 16 20 37 31 47 10 9 16 20 13 25 -2 5 4 26 15 47 22 42 64 67 103
59 17 -3 15 -5 -10 -6 -36 -1 -92 -47 -92 -74 0 -12 5 -13 33 -3 17 6 37 14
42 18 18 11 116 -27 158 -62 48 -40 65 -77 68 -153 3 -69 -6 -84 -15 -24 -24
161 -215 245 -301 133 -33 -43 -43 -93 -21 -102 24 -9 19 -23 -6 -17 -23 5
-23 4 2 -17 24 -21 24 -21 3 -15 -26 7 -31 -9 -9 -31 19 -19 23 -18 29 6 8 30
24 24 31 -12 5 -24 2 -36 -9 -44 -20 -15 -19 -24 3 -25 11 0 12 -2 4 -6 -7 -3
-17 -16 -22 -29 -5 -13 -14 -24 -20 -24 -6 0 -8 5 -5 10 4 6 -9 2 -28 -9 -38
-21 -70 -19 -99 7 -25 21 -22 31 8 38 19 5 22 9 12 15 -7 5 -10 9 -5 10 4 1
12 3 17 4 6 1 13 3 18 4 4 1 0 6 -8 11 -9 6 -10 10 -3 10 6 0 14 -4 17 -8 3
-5 20 -7 37 -4 l33 5 -23 18 c-30 25 -76 24 -108 -1 -20 -15 -29 -17 -39 -9
-10 8 -14 8 -14 0 0 -6 3 -11 8 -11 4 0 15 -7 25 -14 18 -14 18 -16 2 -40 -15
-22 -15 -26 -2 -26 8 0 17 -7 21 -15 3 -8 12 -15 19 -15 17 0 42 -28 34 -37
-4 -3 -15 0 -24 7 -10 7 0 -3 22 -23 l40 -36 -45 5 c-28 4 -57 0 -78 -9 -31
-13 -32 -15 -16 -28 12 -9 15 -10 10 -1 -5 8 -1 12 11 13 10 1 30 2 45 3 15 2
25 -1 22 -6 -3 -4 -10 -6 -15 -3 -5 4 -9 2 -9 -4 0 -6 -6 -8 -14 -5 -8 3 -17
1 -20 -4 -3 -5 12 -9 34 -8 24 1 42 7 45 15 4 10 8 11 20 1 23 -19 30 13 9 45
-20 31 -15 38 28 37 38 -1 59 13 51 34 -3 8 1 14 11 14 9 0 16 8 17 18 0 11 2
12 6 4 3 -7 -1 -19 -7 -27 -10 -12 -9 -20 4 -40 20 -31 13 -49 -13 -35 -15 8
-18 6 -17 -13 1 -15 -4 -21 -15 -19 -9 1 -16 -4 -16 -13 0 -8 5 -11 10 -8 6 4
8 -1 4 -11 -4 -10 -7 -21 -7 -24 0 -4 -7 4 -16 16 l-15 22 -33 -25 c-18 -14
-41 -25 -52 -25 -31 -1 -50 -23 -48 -55 1 -16 2 -39 3 -51 0 -11 7 -28 14 -37
11 -16 15 -14 45 24 17 24 32 39 32 35 0 -5 15 8 33 28 18 20 36 36 39 36 13
0 25 -92 17 -127 -4 -20 -6 -40 -4 -44 7 -10 -111 -70 -169 -85 -28 -8 -70
-14 -92 -14 -34 0 -43 -4 -47 -22 -4 -15 0 -26 13 -35 25 -18 26 -48 1 -50
-11 -1 -23 9 -31 25 -10 23 -13 25 -23 11 -7 -9 -19 -18 -27 -22 -9 -3 -2 -6
14 -6 34 -1 25 -17 -14 -24 -14 -2 15 -5 63 -6 412 -6 733 344 687 747 -11 94
-29 164 -42 156 -4 -3 -5 -11 -2 -17 4 -7 3 -8 -1 -4 -5 4 -10 15 -11 25 -2 9
-5 30 -8 45 -4 17 -2 26 4 22 22 -13 8 9 -21 34 -16 15 -31 36 -33 46 -2 11
-8 20 -14 20 -18 0 -73 45 -67 55 4 6 -1 7 -11 3 -13 -5 -15 -3 -9 7 5 8 4 11
-3 6 -6 -3 -14 -1 -17 5 -4 5 -14 8 -23 4 -8 -3 -19 0 -24 7 -6 10 -8 8 -8 -4z
m105 -88 c39 -26 25 -26 -17 0 -18 11 -28 20 -23 20 6 0 24 -9 40 -20z m-136
-167 c-10 -21 -19 -45 -19 -55 0 -10 -4 -18 -10 -18 -18 0 -11 57 11 84 30 38
40 32 18 -11z m105 15 c-3 -4 -11 -8 -19 -8 -31 0 -63 -24 -73 -54 -9 -27 -10
-28 -11 -8 -1 13 6 36 15 51 13 22 23 27 54 27 21 0 36 -4 34 -8z m-6 -39
c-38 -28 -68 -81 -68 -120 0 -53 -16 -68 -23 -23 -5 32 -1 46 25 86 17 27 42
55 57 63 37 20 41 18 9 -6z m71 0 c-11 -7 -10 -9 4 -9 10 0 15 -5 12 -10 -3
-6 0 -13 9 -16 8 -3 17 -12 20 -20 7 -18 -3 -45 -15 -38 -8 4 -4 -40 7 -73 5
-18 -17 -16 -43 2 -21 15 -28 55 -10 55 4 0 5 5 2 10 -3 6 -1 10 4 10 16 0 13
16 -5 35 -14 13 -19 14 -25 3 -5 -7 -9 -23 -9 -34 0 -12 -7 -27 -15 -34 -8 -7
-15 -25 -15 -39 0 -33 -42 -76 -64 -68 -24 10 -19 25 14 42 34 17 39 39 13 54
-10 5 -15 13 -11 17 4 4 15 1 23 -6 14 -12 15 -10 10 13 -6 23 -5 26 10 21 14
-6 16 -3 10 17 -5 18 -4 21 4 9 8 -12 11 -12 11 -1 0 18 53 79 64 73 4 -2 2
-8 -5 -13z m-63 -246 c3 3 19 -10 36 -29 24 -27 29 -40 23 -62 -4 -15 -6 -29
-5 -31 1 -2 -4 -7 -11 -12 -13 -8 -36 19 -79 96 -18 32 -19 36 -5 25 16 -14
17 -13 10 10 -7 22 -6 23 9 11 9 -8 19 -11 22 -8z m-209 -39 c-3 -3 -12 -4
-19 -1 -8 3 -5 6 6 6 11 1 17 -2 13 -5z m122 -22 c0 -14 -2 -13 -9 3 -5 11 -9
14 -9 8 -1 -7 -6 -13 -12 -13 -8 0 -8 5 1 15 15 18 30 11 29 -13z m76 -45 c22
-45 23 -49 7 -67 -12 -15 -18 -16 -24 -7 -4 7 -8 -3 -8 -24 0 -32 -28 -119
-30 -94 0 6 -7 -5 -15 -23 -8 -18 -19 -31 -24 -28 -5 4 -11 0 -14 -6 -2 -7 -8
-9 -13 -5 -10 10 10 43 25 40 11 -3 15 9 11 41 -1 11 3 15 9 12 7 -5 11 3 11
19 0 15 4 24 10 20 11 -7 11 -8 14 90 2 39 -2 79 -7 90 -9 18 -9 19 7 5 10 -7
28 -36 41 -63z m-295 -157 c0 -5 -5 -10 -11 -10 -5 0 -7 5 -4 10 3 6 8 10 11
10 2 0 4 -4 4 -10z"/>
<path d="M1570 1066 c0 -2 7 -7 16 -10 8 -3 12 -2 9 4 -6 10 -25 14 -25 6z"/>
<path d="M1550 970 c0 -8 5 -22 10 -30 9 -13 10 -13 10 0 0 8 -5 22 -10 30 -9
13 -10 13 -10 0z"/>
<path d="M721 1552 c-1 -22 0 -22 24 -6 29 19 33 29 6 14 -14 -7 -21 -6 -24 3
-3 6 -6 2 -6 -11z"/>
<path d="M730 1493 c0 -18 2 -33 4 -33 9 0 13 39 5 51 -6 10 -9 4 -9 -18z"/>
<path d="M769 1504 c7 -15 7 -24 -1 -32 -8 -8 -3 -8 15 0 14 7 21 15 14 17 -7
2 -18 11 -25 20 -11 14 -12 13 -3 -5z"/>
<path d="M1272 1490 c0 -14 2 -19 5 -12 2 6 2 18 0 25 -3 6 -5 1 -5 -13z"/>
<path d="M1291 1494 c0 -11 3 -14 6 -6 3 7 2 16 -1 19 -3 4 -6 -2 -5 -13z"/>
<path d="M807 1449 c-4 -16 -3 -18 9 -8 7 6 11 15 8 20 -8 13 -11 11 -17 -12z"/>
<path d="M1277 1428 c-3 -18 -2 -37 2 -41 4 -4 8 10 9 33 2 48 -4 52 -11 8z"/>
<path d="M740 1429 c0 -11 4 -18 10 -14 5 3 7 12 3 20 -7 21 -13 19 -13 -6z"/>
<path d="M755 1401 c-6 -11 57 -26 77 -18 7 3 -2 6 -19 6 -18 1 -33 6 -33 11
0 13 -17 13 -25 1z"/>
<path d="M738 1373 c6 -2 18 -2 25 0 6 3 1 5 -13 5 -14 0 -19 -2 -12 -5z"/>
<path d="M805 1360 c-3 -5 0 -7 8 -4 8 3 17 -2 20 -10 7 -17 37 -22 37 -6 0 5
-7 7 -15 4 -9 -4 -15 0 -15 10 0 18 -25 22 -35 6z"/>
<path d="M980 1366 c0 -2 7 -7 16 -10 8 -3 12 -2 9 4 -6 10 -25 14 -25 6z"/>
<path d="M1690 1359 c0 -5 5 -7 10 -4 6 3 10 8 10 11 0 2 -4 4 -10 4 -5 0 -10
-5 -10 -11z"/>
<path d="M756 1351 c-4 -5 3 -7 14 -4 23 6 26 13 6 13 -8 0 -17 -4 -20 -9z"/>
<path d="M811 1328 c-1 -22 11 -29 29 -17 13 7 12 9 -2 9 -9 0 -19 6 -21 13
-3 7 -6 6 -6 -5z"/>
<path d="M902 1328 c2 -6 10 -13 16 -14 7 -1 8 0 2 3 -5 2 -8 9 -4 14 3 5 0 9
-6 9 -7 0 -10 -5 -8 -12z"/>
<path d="M748 1323 c6 -2 9 -10 6 -15 -4 -7 -2 -8 4 -4 7 4 12 2 12 -5 0 -7 3
-9 6 -6 9 8 -15 37 -30 36 -7 0 -6 -2 2 -6z"/>
<path d="M913 1156 l-21 -23 24 0 c14 0 24 5 24 13 0 8 4 14 9 14 4 0 6 -11 4
-24 -4 -20 -2 -24 13 -20 11 3 24 16 30 29 10 21 9 24 -19 29 -42 8 -41 9 -64
-18z"/>
<path d="M663 1163 c-7 -2 -13 -12 -13 -20 0 -12 3 -13 14 -4 19 16 32 -5 16
-24 -9 -11 -10 -19 -1 -28 6 -8 8 -17 4 -21 -4 -4 0 -4 8 -1 11 4 15 0 14 -14
-1 -11 -4 -24 -8 -27 -9 -10 -45 36 -54 68 l-8 27 -12 -24 c-6 -14 -7 -23 -2
-19 5 3 8 -5 7 -18 -1 -13 7 -40 16 -61 20 -41 16 -58 -9 -37 -8 7 -15 10 -15
7 0 -3 13 -15 28 -26 l28 -20 -4 29 c-3 21 3 36 22 55 14 14 26 32 26 40 0 8
5 17 10 20 15 10 12 25 -4 19 -10 -4 -13 0 -10 13 3 10 1 31 -5 46 -10 26 -22
31 -48 20z"/>
<path d="M816 1101 c-8 -13 12 -63 23 -57 5 3 11 -12 15 -34 3 -22 10 -40 14
-40 4 0 15 15 25 32 l18 32 -25 19 c-14 10 -26 25 -26 32 0 7 -7 16 -16 19
-20 8 -22 8 -28 -3z"/>
<path d="M956 1052 c-10 -16 1 -31 30 -42 31 -12 31 -33 0 -57 -13 -10 -27
-29 -31 -43 -7 -21 -6 -23 7 -13 9 8 18 9 24 3 6 -6 10 0 9 17 0 18 5 28 15
28 9 0 14 8 12 19 -2 10 4 27 14 37 21 23 19 26 -26 31 -19 1 -38 9 -41 17 -4
11 -8 12 -13 3z"/>
<path d="M1227 1044 c4 -10 0 -12 -10 -8 -9 3 -25 -1 -37 -9 -20 -14 -20 -14
-1 -38 17 -20 20 -21 21 -6 0 9 3 16 8 15 4 -2 19 6 34 18 l27 21 -24 11 c-20
9 -23 9 -18 -4z"/>
<path d="M565 1000 c-3 -5 -1 -10 4 -10 6 0 11 5 11 10 0 6 -2 10 -4 10 -3 0
-8 -4 -11 -10z"/>
<path d="M913 837 c-22 -24 -43 -61 -43 -74 0 -4 11 10 25 31 13 21 29 42 36
47 8 4 11 10 8 13 -3 3 -15 -4 -26 -17z"/>
<path d="M1021 814 c0 -11 3 -14 6 -6 3 7 2 16 -1 19 -3 4 -6 -2 -5 -13z"/>
<path d="M827 693 c3 -7 11 -13 19 -13 7 0 11 6 8 13 -3 8 -11 14 -18 14 -8 0
-12 -6 -9 -14z"/>
<path d="M655 651 c41 -46 165 -126 226 -146 28 -9 52 -15 54 -13 2 2 -9 19
-26 37 -16 19 -29 42 -29 52 0 20 -56 41 -89 32 -21 -5 -91 24 -91 39 0 5 -4
6 -10 3 -5 -3 -22 2 -37 12 l-28 17 30 -33z"/>
<path d="M988 473 c7 -3 16 -2 19 1 4 3 -2 6 -13 5 -11 0 -14 -3 -6 -6z"/>
</g>
</svg>
